<svg xmlns="http://www.w3.org/2000/svg" viewBox="0 0 1280 720" role="img" aria-labelledby="title desc">
  <title id="title">Stock Analysis AI demo poster</title>
  <desc id="desc">Poster image for the Stock Analysis AI project demo.</desc>
  <defs>
    <linearGradient id="bg" x1="0" x2="1" y1="0" y2="1">
      <stop offset="0%" stop-color="#091321"/>
      <stop offset="100%" stop-color="#07111d"/>
    </linearGradient>
    <linearGradient id="accent" x1="0" x2="1" y1="0" y2="1">
      <stop offset="0%" stop-color="#ffbe6b"/>
      <stop offset="100%" stop-color="#62e8ff"/>
    </linearGradient>
  </defs>
  <rect width="1280" height="720" fill="url(#bg)"/>
  <g opacity="0.14">
    <path d="M0 120H1280" stroke="#8ba2bf" stroke-width="1"/>
    <path d="M0 240H1280" stroke="#8ba2bf" stroke-width="1"/>
    <path d="M0 360H1280" stroke="#8ba2bf" stroke-width="1"/>
    <path d="M0 480H1280" stroke="#8ba2bf" stroke-width="1"/>
    <path d="M0 600H1280" stroke="#8ba2bf" stroke-width="1"/>
    <path d="M180 0V720" stroke="#8ba2bf" stroke-width="1"/>
    <path d="M360 0V720" stroke="#8ba2bf" stroke-width="1"/>
    <path d="M540 0V720" stroke="#8ba2bf" stroke-width="1"/>
    <path d="M720 0V720" stroke="#8ba2bf" stroke-width="1"/>
    <path d="M900 0V720" stroke="#8ba2bf" stroke-width="1"/>
    <path d="M1080 0V720" stroke="#8ba2bf" stroke-width="1"/>
  </g>
  <rect x="96" y="76" width="1088" height="568" rx="36" fill="#0d1726" stroke="#203247" stroke-width="2"/>
  <text x="156" y="164" fill="#ffbe6b" font-family="Arial, sans-serif" font-size="28" font-weight="700">TOOL-USING MARKET ANALYSIS</text>
  <text x="156" y="236" fill="#f4f7fb" font-family="Arial, sans-serif" font-size="62" font-weight="700">Stock Analysis AI</text>
  <text x="156" y="292" fill="#a5b3c7" font-family="Arial, sans-serif" font-size="28">Natural language prompts turned into grounded price, ticker, and signal workflows.</text>
  <rect x="156" y="340" width="238" height="54" rx="27" fill="#102236" stroke="#28425a"/>
  <text x="196" y="375" fill="#f4f7fb" font-family="Arial, sans-serif" font-size="24" font-weight="700">Function Calling</text>
  <rect x="412" y="340" width="196" height="54" rx="27" fill="#102236" stroke="#28425a"/>
  <text x="448" y="375" fill="#f4f7fb" font-family="Arial, sans-serif" font-size="24" font-weight="700">yfinance</text>
  <rect x="626" y="340" width="184" height="54" rx="27" fill="#102236" stroke="#28425a"/>
  <text x="666" y="375" fill="#f4f7fb" font-family="Arial, sans-serif" font-size="24" font-weight="700">Pydantic</text>
  <rect x="838" y="140" width="274" height="360" rx="28" fill="#08111d" stroke="#22364d" stroke-width="2"/>
  <polyline points="870,404 924,338 978,354 1032,282 1086,220" fill="none" stroke="url(#accent)" stroke-width="8" stroke-linecap="round" stroke-linejoin="round"/>
  <circle cx="870" cy="404" r="10" fill="#ffbe6b"/>
  <circle cx="924" cy="338" r="10" fill="#ffbe6b"/>
  <circle cx="978" cy="354" r="10" fill="#ffbe6b"/>
  <circle cx="1032" cy="282" r="10" fill="#62e8ff"/>
  <circle cx="1086" cy="220" r="10" fill="#62e8ff"/>
  <rect x="156" y="448" width="620" height="132" rx="28" fill="#0b1422" stroke="#203247" stroke-width="2"/>
  <text x="192" y="500" fill="#62e8ff" font-family="Courier New, monospace" font-size="26" font-weight="700">query("analyse tsla momentum")</text>
  <text x="192" y="544" fill="#f4f7fb" font-family="Courier New, monospace" font-size="28">lookup_ticker() -&gt; fetch_prices() -&gt; signal_report()</text>
  <circle cx="1090" cy="542" r="56" fill="url(#accent)"/>
  <path d="M1068 510L1120 542L1068 574Z" fill="#041018"/>
</svg>
